<?xml version="1.0" standalone="no"?>
<!DOCTYPE svg PUBLIC "-//W3C//DTD SVG 20010904//EN"
 "http://www.w3.org/TR/2001/REC-SVG-20010904/DTD/svg10.dtd">
<svg version="1.0" xmlns="http://www.w3.org/2000/svg"
 width="470.000000pt" height="470.000000pt" viewBox="0 0 470.000000 470.000000"
 preserveAspectRatio="xMidYMid meet">
<metadata>
Created by potrace 1.16, written by Peter Selinger 2001-2019
</metadata>
<g transform="translate(0.000000,470.000000) scale(0.100000,-0.100000)"
fill="#000000" stroke="none">
<path d="M0 2350 l0 -2350 2350 0 2350 0 0 2350 0 2350 -2350 0 -2350 0 0
-2350z m2565 1584 c639 -100 1159 -606 1296 -1261 40 -192 40 -474 0 -666
-100 -480 -406 -887 -831 -1106 -205 -106 -282 -119 -309 -53 -6 16 -12 143
-13 317 -3 270 -5 294 -25 343 -12 29 -33 68 -47 86 l-25 33 77 13 c422 67
632 319 632 760 0 75 -6 150 -15 188 -17 70 -71 183 -110 230 -26 32 -27 33
-15 100 16 88 9 241 -15 315 -18 56 -19 57 -56 57 -76 0 -209 -52 -334 -131
l-60 -37 -90 21 c-77 18 -121 21 -305 21 -184 0 -228 -3 -305 -21 l-90 -21
-60 37 c-125 79 -258 131 -334 131 -37 0 -38 -1 -56 -57 -24 -74 -31 -227 -15
-315 12 -67 11 -68 -15 -100 -40 -48 -94 -161 -111 -235 -20 -86 -19 -274 2
-383 46 -243 161 -396 368 -490 68 -31 190 -65 273 -76 l52 -6 -26 -35 c-15
-20 -39 -70 -53 -111 l-26 -76 -59 -19 c-43 -13 -80 -17 -130 -14 -111 6 -179
49 -255 161 -27 41 -68 90 -91 109 -67 58 -172 84 -213 54 -24 -18 -9 -47 38
-77 57 -34 124 -117 162 -199 20 -42 41 -87 47 -100 21 -44 97 -112 151 -137
94 -43 228 -54 333 -28 l23 6 0 -145 c0 -90 -4 -156 -12 -172 -26 -57 -100
-46 -272 38 -172 85 -286 167 -427 307 -276 275 -442 639 -468 1030 -46 670
298 1279 888 1575 281 141 602 189 926 139z"/>
</g>
</svg>
