<?xml version="1.0" standalone="no"?>
<!DOCTYPE svg PUBLIC "-//W3C//DTD SVG 20010904//EN"
 "http://www.w3.org/TR/2001/REC-SVG-20010904/DTD/svg10.dtd">
<svg version="1.0" xmlns="http://www.w3.org/2000/svg"
 width="150.000000pt" height="150.000000pt" viewBox="0 0 150.000000 150.000000"
 preserveAspectRatio="xMidYMid meet">
<metadata>
Created by potrace 1.16, written by Peter Selinger 2001-2019
</metadata>
<g transform="translate(0.000000,150.000000) scale(0.100000,-0.100000)"
fill="#000000" stroke="none">
<path d="M0 750 l0 -750 750 0 750 0 0 750 0 750 -750 0 -750 0 0 -750z m1044
440 c21 -8 58 -33 82 -56 69 -67 79 -115 79 -374 0 -238 -9 -294 -55 -359 -18
-24 -50 -49 -87 -67 l-58 -29 -245 0 c-286 0 -318 6 -385 70 -63 61 -76 112
-82 320 -11 343 32 456 188 500 72 19 503 16 563 -5z"/>
<path d="M496 1104 c-53 -19 -72 -38 -93 -93 -15 -39 -18 -79 -18 -261 0 -209
1 -216 25 -265 43 -85 61 -90 340 -90 279 0 297 5 340 90 24 49 25 55 25 270
0 215 -1 221 -25 270 -42 84 -62 90 -330 92 -177 2 -233 -1 -264 -13z m342
-130 c87 -36 146 -125 146 -219 0 -205 -246 -313 -392 -172 -103 99 -103 245
0 344 18 18 49 39 68 47 46 20 131 20 178 0z"/>
<path d="M700 892 c-60 -28 -90 -73 -90 -135 0 -90 51 -142 140 -142 88 0 140
52 140 140 0 81 -50 136 -129 141 -25 2 -53 0 -61 -4z"/>
</g>
</svg>
