<?xml version="1.0" standalone="no"?>
<!DOCTYPE svg PUBLIC "-//W3C//DTD SVG 20010904//EN"
 "http://www.w3.org/TR/2001/REC-SVG-20010904/DTD/svg10.dtd">
<svg version="1.0" xmlns="http://www.w3.org/2000/svg"
 width="512.000000pt" height="512.000000pt" viewBox="0 0 512.000000 512.000000"
 preserveAspectRatio="xMidYMid meet">
<metadata>
Created by potrace 1.16, written by Peter Selinger 2001-2019
</metadata>
<g transform="translate(0.000000,512.000000) scale(0.100000,-0.100000)"
fill="#000000" stroke="none">
<path d="M2270 5109 c-670 -82 -1262 -404 -1691 -919 -312 -374 -519 -871
-570 -1368 -17 -169 -7 -526 20 -677 101 -567 341 -1028 738 -1416 387 -379
823 -600 1383 -701 111 -20 158 -23 410 -23 252 0 299 3 410 23 470 85 831
245 1195 530 90 71 326 307 397 397 285 364 445 725 530 1195 20 111 23 158
23 410 0 252 -3 299 -23 410 -100 555 -319 989 -692 1374 -391 403 -851 644
-1425 747 -98 18 -168 22 -375 25 -140 1 -289 -2 -330 -7z m-659 -982 c217
-106 269 -380 105 -555 -68 -72 -148 -106 -251 -107 -71 0 -88 4 -147 33 -74
36 -134 96 -169 170 -34 69 -38 189 -10 263 22 59 80 133 132 170 91 65 238
76 340 26z m1924 -902 c108 -30 186 -74 256 -144 95 -96 141 -188 182 -366 19
-85 21 -126 24 -762 l4 -673 -300 0 -301 0 0 538 c0 300 -5 568 -10 607 -20
138 -68 222 -154 268 -35 19 -57 22 -146 22 -89 0 -113 -4 -157 -24 -99 -44
-159 -138 -183 -283 -6 -37 -10 -282 -10 -595 l0 -533 -300 0 -300 0 0 965 0
965 285 0 284 0 3 -136 3 -137 33 51 c69 108 209 203 354 242 62 17 96 19 223
16 98 -3 171 -10 210 -21z m-1767 -982 l2 -963 -305 0 -305 0 0 958 c0 527 3
962 7 965 4 4 140 6 302 5 l296 -3 3 -962z"/>
</g>
</svg>
